<mxfile host="processflow.sharehoo.cn" modified="2021-04-20T10:15:09.491Z" agent="5.0 (Windows NT 10.0; Win64; x64) AppleWebKit/537.36 (KHTML, like Gecko) Chrome/89.0.4389.128 Safari/537.36 Edg/89.0.774.77" etag="Dx7EYHCnFsOvMJYu7ZbR" version="14.3.2" type="github">
  <diagram id="XYUqCnbao1tesWPAXPP-" name="第 1 页">
    <mxGraphModel dx="1422" dy="762" grid="1" gridSize="10" guides="1" tooltips="1" connect="1" arrows="1" fold="1" page="1" pageScale="1" pageWidth="827" pageHeight="1169" math="0" shadow="0">
      <root>
        <mxCell id="0" />
        <mxCell id="1" parent="0" />
        <mxCell id="60DcxMuKNIoMC7qWtKat-1" value="" style="edgeStyle=orthogonalEdgeStyle;rounded=0;orthogonalLoop=1;jettySize=auto;html=1;" edge="1" parent="1" source="60DcxMuKNIoMC7qWtKat-2" target="60DcxMuKNIoMC7qWtKat-3">
          <mxGeometry relative="1" as="geometry" />
        </mxCell>
        <mxCell id="60DcxMuKNIoMC7qWtKat-2" value="" style="verticalLabelPosition=bottom;verticalAlign=top;html=1;shape=mxgraph.flowchart.on-page_reference;" vertex="1" parent="1">
          <mxGeometry x="360" y="1365" width="50" height="50" as="geometry" />
        </mxCell>
        <mxCell id="60DcxMuKNIoMC7qWtKat-3" value="" style="verticalLabelPosition=bottom;verticalAlign=top;html=1;shape=mxgraph.flowchart.on-page_reference;" vertex="1" parent="1">
          <mxGeometry x="360" y="1495" width="50" height="50" as="geometry" />
        </mxCell>
        <mxCell id="60DcxMuKNIoMC7qWtKat-4" value="" style="edgeStyle=orthogonalEdgeStyle;rounded=0;orthogonalLoop=1;jettySize=auto;html=1;" edge="1" parent="1" source="60DcxMuKNIoMC7qWtKat-5" target="60DcxMuKNIoMC7qWtKat-7">
          <mxGeometry relative="1" as="geometry" />
        </mxCell>
        <mxCell id="60DcxMuKNIoMC7qWtKat-5" value="" style="verticalLabelPosition=bottom;verticalAlign=top;html=1;shape=mxgraph.flowchart.on-page_reference;" vertex="1" parent="1">
          <mxGeometry x="600" y="1355" width="50" height="50" as="geometry" />
        </mxCell>
        <mxCell id="60DcxMuKNIoMC7qWtKat-6" value="" style="edgeStyle=orthogonalEdgeStyle;rounded=0;orthogonalLoop=1;jettySize=auto;html=1;" edge="1" parent="1" source="60DcxMuKNIoMC7qWtKat-7" target="60DcxMuKNIoMC7qWtKat-8">
          <mxGeometry relative="1" as="geometry" />
        </mxCell>
        <mxCell id="60DcxMuKNIoMC7qWtKat-7" value="" style="verticalLabelPosition=bottom;verticalAlign=top;html=1;shape=mxgraph.flowchart.on-page_reference;" vertex="1" parent="1">
          <mxGeometry x="600" y="1485" width="50" height="50" as="geometry" />
        </mxCell>
        <mxCell id="60DcxMuKNIoMC7qWtKat-8" value="" style="verticalLabelPosition=bottom;verticalAlign=top;html=1;shape=mxgraph.flowchart.on-page_reference;" vertex="1" parent="1">
          <mxGeometry x="600" y="1615" width="50" height="50" as="geometry" />
        </mxCell>
        <mxCell id="60DcxMuKNIoMC7qWtKat-9" value="" style="verticalLabelPosition=bottom;verticalAlign=top;html=1;shape=mxgraph.flowchart.on-page_reference;" vertex="1" parent="1">
          <mxGeometry x="830" y="1355" width="50" height="50" as="geometry" />
        </mxCell>
        <mxCell id="60DcxMuKNIoMC7qWtKat-10" value="" style="edgeStyle=orthogonalEdgeStyle;rounded=0;orthogonalLoop=1;jettySize=auto;html=1;" edge="1" parent="1" source="60DcxMuKNIoMC7qWtKat-11" target="60DcxMuKNIoMC7qWtKat-12">
          <mxGeometry relative="1" as="geometry" />
        </mxCell>
        <mxCell id="60DcxMuKNIoMC7qWtKat-11" value="" style="verticalLabelPosition=bottom;verticalAlign=top;html=1;shape=mxgraph.flowchart.on-page_reference;" vertex="1" parent="1">
          <mxGeometry x="900" y="1355" width="50" height="50" as="geometry" />
        </mxCell>
        <mxCell id="60DcxMuKNIoMC7qWtKat-12" value="" style="verticalLabelPosition=bottom;verticalAlign=top;html=1;shape=mxgraph.flowchart.on-page_reference;" vertex="1" parent="1">
          <mxGeometry x="900" y="1485" width="50" height="50" as="geometry" />
        </mxCell>
        <mxCell id="60DcxMuKNIoMC7qWtKat-13" style="edgeStyle=none;rounded=0;orthogonalLoop=1;jettySize=auto;html=1;entryX=0.5;entryY=0;entryDx=0;entryDy=0;entryPerimeter=0;" edge="1" parent="1" target="60DcxMuKNIoMC7qWtKat-2">
          <mxGeometry relative="1" as="geometry">
            <mxPoint x="385" y="1316" as="sourcePoint" />
          </mxGeometry>
        </mxCell>
        <mxCell id="60DcxMuKNIoMC7qWtKat-14" value="" style="endArrow=classic;html=1;" edge="1" parent="1">
          <mxGeometry width="50" height="50" relative="1" as="geometry">
            <mxPoint x="854.5" y="1315" as="sourcePoint" />
            <mxPoint x="855" y="1355" as="targetPoint" />
          </mxGeometry>
        </mxCell>
        <mxCell id="60DcxMuKNIoMC7qWtKat-15" value="" style="endArrow=classic;html=1;entryX=0.5;entryY=0;entryDx=0;entryDy=0;entryPerimeter=0;" edge="1" parent="1" target="60DcxMuKNIoMC7qWtKat-5">
          <mxGeometry width="50" height="50" relative="1" as="geometry">
            <mxPoint x="625" y="1316" as="sourcePoint" />
            <mxPoint x="710" y="1345" as="targetPoint" />
          </mxGeometry>
        </mxCell>
        <mxCell id="60DcxMuKNIoMC7qWtKat-16" value="" style="endArrow=classic;html=1;" edge="1" parent="1">
          <mxGeometry width="50" height="50" relative="1" as="geometry">
            <mxPoint x="924.5" y="1315" as="sourcePoint" />
            <mxPoint x="925" y="1355" as="targetPoint" />
          </mxGeometry>
        </mxCell>
        <mxCell id="60DcxMuKNIoMC7qWtKat-17" value="&lt;h1 style=&quot;text-align: center&quot;&gt;阀值&lt;/h1&gt;&lt;p&gt;&lt;span style=&quot;text-align: center&quot;&gt;用满数组的75%就会扩容，扩容为当前的2倍&lt;/span&gt;&lt;br&gt;&lt;/p&gt;" style="text;html=1;strokeColor=#006EAF;fillColor=#1ba1e2;spacing=5;spacingTop=-20;whiteSpace=wrap;overflow=hidden;rounded=1;arcSize=12;fontColor=#ffffff;" vertex="1" parent="1">
          <mxGeometry x="940" y="1100" width="260" height="90" as="geometry" />
        </mxCell>
        <mxCell id="60DcxMuKNIoMC7qWtKat-18" value="&lt;font style=&quot;font-size: 11px&quot;&gt;索引&lt;/font&gt;" style="text;html=1;strokeColor=none;fillColor=none;align=center;verticalAlign=middle;whiteSpace=wrap;rounded=0;fontSize=7;fontColor=#3399FF;" vertex="1" parent="1">
          <mxGeometry x="300" y="1256.5" width="40" height="20" as="geometry" />
        </mxCell>
        <mxCell id="60DcxMuKNIoMC7qWtKat-19" value="数据" style="text;html=1;strokeColor=none;fillColor=none;align=center;verticalAlign=middle;whiteSpace=wrap;rounded=0;fontSize=7;fontColor=#3399FF;" vertex="1" parent="1">
          <mxGeometry x="300" y="1285" width="40" height="20" as="geometry" />
        </mxCell>
        <mxCell id="60DcxMuKNIoMC7qWtKat-20" value="&lt;h1&gt;&lt;span style=&quot;font-family: &amp;#34;source code variable&amp;#34; , monospace ; font-size: 13.5pt ; font-weight: normal ; color: rgb(198 , 121 , 221) ; font-style: italic&quot;&gt;&lt;br&gt;&lt;/span&gt;&lt;/h1&gt;&lt;h1 style=&quot;text-align: center&quot;&gt;&lt;font color=&quot;#abb2bf&quot; style=&quot;font-size: 24px&quot;&gt;HashSet类&lt;/font&gt;&lt;/h1&gt;&lt;h1&gt;&lt;span style=&quot;font-family: &amp;#34;source code variable&amp;#34; , monospace ; font-size: 13.5pt ; font-weight: normal ; color: rgb(198 , 121 , 221) ; font-style: italic&quot;&gt;public class &lt;/span&gt;&lt;span style=&quot;font-family: &amp;#34;source code variable&amp;#34; , monospace ; font-size: 13.5pt ; font-weight: normal ; text-align: left ; color: rgb(229 , 193 , 124)&quot;&gt;Demo01Main &lt;/span&gt;&lt;span style=&quot;font-family: &amp;#34;source code variable&amp;#34; , monospace ; font-size: 13.5pt ; font-weight: normal ; text-align: left ; color: rgb(166 , 178 , 192)&quot;&gt;{&lt;/span&gt;&lt;br&gt;&lt;/h1&gt;&lt;pre style=&quot;background-color: #282c34 ; color: #abb2bf ; font-family: &amp;#34;source code variable&amp;#34; , monospace ; font-size: 13.5pt&quot;&gt;&lt;span style=&quot;color: #a6b2c0&quot;&gt;    &lt;/span&gt;&lt;span style=&quot;color: #c679dd ; font-style: italic&quot;&gt;public static void &lt;/span&gt;&lt;span style=&quot;color: #61aeef&quot;&gt;main&lt;/span&gt;&lt;span style=&quot;color: #a6b2c0&quot;&gt;(&lt;/span&gt;&lt;span style=&quot;color: #e5c17c&quot;&gt;String&lt;/span&gt;&lt;span style=&quot;color: #a6b2c0&quot;&gt;[] &lt;/span&gt;args&lt;span style=&quot;color: #a6b2c0&quot;&gt;) {&lt;br&gt;&lt;/span&gt;&lt;span style=&quot;color: #a6b2c0&quot;&gt;        &lt;/span&gt;&lt;span style=&quot;color: #e5c17c&quot;&gt;HashSet&lt;/span&gt;&lt;span style=&quot;color: #61afef&quot;&gt;&amp;lt;&lt;/span&gt;&lt;span style=&quot;color: #e5c17c&quot;&gt;Integer&lt;/span&gt;&lt;span style=&quot;color: #61afef&quot;&gt;&amp;gt; &lt;/span&gt;&lt;span style=&quot;color: #d19a66&quot;&gt;hs &lt;/span&gt;&lt;span style=&quot;color: #61afef&quot;&gt;= &lt;/span&gt;&lt;span style=&quot;color: #c679dd ; font-style: italic&quot;&gt;new &lt;/span&gt;&lt;span style=&quot;color: #61aeef&quot;&gt;HashSet&lt;/span&gt;&lt;span style=&quot;color: #61afef&quot;&gt;&amp;lt;&amp;gt;&lt;/span&gt;&lt;span style=&quot;color: #a6b2c0&quot;&gt;();&lt;br&gt;&lt;/span&gt;&lt;span style=&quot;color: #a6b2c0&quot;&gt;        &lt;/span&gt;&lt;span style=&quot;color: #d19a66&quot;&gt;hs&lt;/span&gt;&lt;span style=&quot;color: #a6b2c0&quot;&gt;.&lt;/span&gt;&lt;span style=&quot;color: #61aeef&quot;&gt;add&lt;/span&gt;&lt;span style=&quot;color: #a6b2c0&quot;&gt;(&lt;/span&gt;&lt;span style=&quot;color: #d19a66&quot;&gt;279&lt;/span&gt;&lt;span style=&quot;color: #a6b2c0&quot;&gt;); &lt;/span&gt;// 279算出索引为7&lt;span style=&quot;color: #a6b2c0&quot;&gt;&lt;br&gt;&lt;/span&gt;&lt;span style=&quot;color: #a6b2c0&quot;&gt;        &lt;/span&gt;&lt;span style=&quot;color: #d19a66&quot;&gt;hs&lt;/span&gt;&lt;span style=&quot;color: #a6b2c0&quot;&gt;.&lt;/span&gt;&lt;span style=&quot;color: #61aeef&quot;&gt;add&lt;/span&gt;&lt;span style=&quot;color: #a6b2c0&quot;&gt;(&lt;/span&gt;&lt;span style=&quot;color: #d19a66&quot;&gt;497&lt;/span&gt;&lt;span style=&quot;color: #a6b2c0&quot;&gt;);&lt;br&gt;&lt;/span&gt;&lt;span style=&quot;color: #a6b2c0&quot;&gt;        &lt;/span&gt;&lt;span style=&quot;color: #d19a66&quot;&gt;hs&lt;/span&gt;&lt;span style=&quot;color: #a6b2c0&quot;&gt;.&lt;/span&gt;&lt;span style=&quot;color: #61aeef&quot;&gt;add&lt;/span&gt;&lt;span style=&quot;color: #a6b2c0&quot;&gt;(&lt;/span&gt;&lt;span style=&quot;color: #d19a66&quot;&gt;222&lt;/span&gt;&lt;span style=&quot;color: #a6b2c0&quot;&gt;);&lt;br&gt;&lt;/span&gt;&lt;span style=&quot;color: #a6b2c0&quot;&gt;        &lt;/span&gt;&lt;span style=&quot;color: #d19a66&quot;&gt;hs&lt;/span&gt;&lt;span style=&quot;color: #a6b2c0&quot;&gt;.&lt;/span&gt;&lt;span style=&quot;color: #61aeef&quot;&gt;add&lt;/span&gt;&lt;span style=&quot;color: #a6b2c0&quot;&gt;(&lt;/span&gt;&lt;span style=&quot;color: #d19a66&quot;&gt;789&lt;/span&gt;&lt;span style=&quot;color: #a6b2c0&quot;&gt;);&lt;br&gt;&lt;/span&gt;&lt;span style=&quot;color: #a6b2c0&quot;&gt;        &lt;/span&gt;&lt;span style=&quot;color: #d19a66&quot;&gt;hs&lt;/span&gt;&lt;span style=&quot;color: #a6b2c0&quot;&gt;.&lt;/span&gt;&lt;span style=&quot;color: #61aeef&quot;&gt;add&lt;/span&gt;&lt;span style=&quot;color: #a6b2c0&quot;&gt;(&lt;/span&gt;&lt;span style=&quot;color: #d19a66&quot;&gt;443&lt;/span&gt;&lt;span style=&quot;color: #a6b2c0&quot;&gt;);&lt;br&gt;&lt;/span&gt;&lt;span style=&quot;color: #a6b2c0&quot;&gt;        &lt;/span&gt;&lt;span style=&quot;color: #d19a66&quot;&gt;hs&lt;/span&gt;&lt;span style=&quot;color: #a6b2c0&quot;&gt;.&lt;/span&gt;&lt;span style=&quot;color: #61aeef&quot;&gt;add&lt;/span&gt;&lt;span style=&quot;color: #a6b2c0&quot;&gt;(&lt;/span&gt;&lt;span style=&quot;color: #d19a66&quot;&gt;456&lt;/span&gt;&lt;span style=&quot;color: #a6b2c0&quot;&gt;);&lt;br&gt;&lt;/span&gt;&lt;span style=&quot;color: #a6b2c0&quot;&gt;        &lt;/span&gt;&lt;span style=&quot;color: #d19a66&quot;&gt;hs&lt;/span&gt;&lt;span style=&quot;color: #a6b2c0&quot;&gt;.&lt;/span&gt;&lt;span style=&quot;color: #61aeef&quot;&gt;add&lt;/span&gt;&lt;span style=&quot;color: #a6b2c0&quot;&gt;(&lt;/span&gt;&lt;span style=&quot;color: #d19a66&quot;&gt;168&lt;/span&gt;&lt;span style=&quot;color: #a6b2c0&quot;&gt;);&lt;br&gt;&lt;/span&gt;&lt;span style=&quot;color: #a6b2c0&quot;&gt;        &lt;/span&gt;&lt;span style=&quot;color: #d19a66&quot;&gt;hs&lt;/span&gt;&lt;span style=&quot;color: #a6b2c0&quot;&gt;.&lt;/span&gt;&lt;span style=&quot;color: #61aeef&quot;&gt;add&lt;/span&gt;&lt;span style=&quot;color: #a6b2c0&quot;&gt;(&lt;/span&gt;&lt;span style=&quot;color: #d19a66&quot;&gt;385&lt;/span&gt;&lt;span style=&quot;color: #a6b2c0&quot;&gt;);&lt;/span&gt;&lt;span style=&quot;color: #a6b2c0&quot;&gt;&lt;br&gt;&lt;/span&gt;&lt;span style=&quot;color: #a6b2c0&quot;&gt;&lt;br&gt;&lt;/span&gt;&lt;span style=&quot;color: #a6b2c0&quot;&gt;        &lt;/span&gt;&lt;span style=&quot;color: #e5c17c&quot;&gt;System&lt;/span&gt;&lt;span style=&quot;color: #a6b2c0&quot;&gt;.&lt;/span&gt;&lt;span style=&quot;color: #d19a66&quot;&gt;out&lt;/span&gt;&lt;span style=&quot;color: #a6b2c0&quot;&gt;.&lt;/span&gt;&lt;span style=&quot;color: #61aeef&quot;&gt;println&lt;/span&gt;&lt;span style=&quot;color: #a6b2c0&quot;&gt;(&lt;/span&gt;&lt;span style=&quot;color: #d19a66&quot;&gt;hs&lt;/span&gt;&lt;span style=&quot;color: #a6b2c0&quot;&gt;);&lt;br&gt;&lt;/span&gt;&lt;span style=&quot;color: #a6b2c0&quot;&gt;    }&lt;br&gt;&lt;/span&gt;&lt;span style=&quot;color: #a6b2c0&quot;&gt;}&lt;/span&gt;&lt;/pre&gt;" style="text;html=1;strokeColor=none;spacing=5;spacingTop=-20;whiteSpace=wrap;overflow=hidden;rounded=1;fontSize=7;fillColor=#282C34;shadow=0;sketch=0;glass=0;arcSize=3;spacingLeft=31;" vertex="1" parent="1">
          <mxGeometry x="350" y="740" width="570" height="450" as="geometry" />
        </mxCell>
        <mxCell id="60DcxMuKNIoMC7qWtKat-21" value="" style="verticalLabelPosition=bottom;verticalAlign=top;html=1;shape=mxgraph.flowchart.on-page_reference;" vertex="1" parent="1">
          <mxGeometry x="660" y="1355" width="50" height="50" as="geometry" />
        </mxCell>
        <mxCell id="60DcxMuKNIoMC7qWtKat-22" value="" style="endArrow=classic;html=1;" edge="1" parent="1">
          <mxGeometry width="50" height="50" relative="1" as="geometry">
            <mxPoint x="684.6599999999999" y="1315" as="sourcePoint" />
            <mxPoint x="685.1599999999999" y="1355" as="targetPoint" />
          </mxGeometry>
        </mxCell>
        <mxCell id="60DcxMuKNIoMC7qWtKat-23" value="" style="verticalLabelPosition=bottom;verticalAlign=top;html=1;shape=mxgraph.flowchart.on-page_reference;" vertex="1" parent="1">
          <mxGeometry x="1130" y="1355" width="50" height="50" as="geometry" />
        </mxCell>
        <mxCell id="60DcxMuKNIoMC7qWtKat-24" value="" style="endArrow=classic;html=1;" edge="1" parent="1">
          <mxGeometry width="50" height="50" relative="1" as="geometry">
            <mxPoint x="1154.4999999999998" y="1315" as="sourcePoint" />
            <mxPoint x="1155.0000000000002" y="1355" as="targetPoint" />
          </mxGeometry>
        </mxCell>
        <mxCell id="60DcxMuKNIoMC7qWtKat-25" style="edgeStyle=none;rounded=0;orthogonalLoop=1;jettySize=auto;html=1;entryX=0.5;entryY=0;entryDx=0;entryDy=0;entryPerimeter=0;" edge="1" parent="1" target="60DcxMuKNIoMC7qWtKat-26">
          <mxGeometry relative="1" as="geometry">
            <mxPoint x="445" y="1316" as="sourcePoint" />
          </mxGeometry>
        </mxCell>
        <mxCell id="60DcxMuKNIoMC7qWtKat-26" value="" style="verticalLabelPosition=bottom;verticalAlign=top;html=1;shape=mxgraph.flowchart.on-page_reference;" vertex="1" parent="1">
          <mxGeometry x="420" y="1365" width="50" height="50" as="geometry" />
        </mxCell>
        <mxCell id="60DcxMuKNIoMC7qWtKat-27" value="" style="endArrow=classic;html=1;" edge="1" parent="1">
          <mxGeometry width="50" height="50" relative="1" as="geometry">
            <mxPoint x="1214.4999999999998" y="1315" as="sourcePoint" />
            <mxPoint x="1215.0000000000002" y="1355" as="targetPoint" />
          </mxGeometry>
        </mxCell>
        <mxCell id="60DcxMuKNIoMC7qWtKat-28" value="" style="edgeStyle=orthogonalEdgeStyle;rounded=0;orthogonalLoop=1;jettySize=auto;html=1;" edge="1" parent="1" source="60DcxMuKNIoMC7qWtKat-29" target="60DcxMuKNIoMC7qWtKat-31">
          <mxGeometry relative="1" as="geometry" />
        </mxCell>
        <mxCell id="60DcxMuKNIoMC7qWtKat-29" value="" style="verticalLabelPosition=bottom;verticalAlign=top;html=1;shape=mxgraph.flowchart.on-page_reference;" vertex="1" parent="1">
          <mxGeometry x="1190" y="1355" width="50" height="50" as="geometry" />
        </mxCell>
        <mxCell id="60DcxMuKNIoMC7qWtKat-30" value="" style="edgeStyle=orthogonalEdgeStyle;rounded=0;orthogonalLoop=1;jettySize=auto;html=1;" edge="1" parent="1" source="60DcxMuKNIoMC7qWtKat-31" target="60DcxMuKNIoMC7qWtKat-32">
          <mxGeometry relative="1" as="geometry" />
        </mxCell>
        <mxCell id="60DcxMuKNIoMC7qWtKat-31" value="" style="verticalLabelPosition=bottom;verticalAlign=top;html=1;shape=mxgraph.flowchart.on-page_reference;" vertex="1" parent="1">
          <mxGeometry x="1190" y="1485" width="50" height="50" as="geometry" />
        </mxCell>
        <mxCell id="60DcxMuKNIoMC7qWtKat-32" value="" style="verticalLabelPosition=bottom;verticalAlign=top;html=1;shape=mxgraph.flowchart.on-page_reference;" vertex="1" parent="1">
          <mxGeometry x="1190" y="1615" width="50" height="50" as="geometry" />
        </mxCell>
        <mxCell id="60DcxMuKNIoMC7qWtKat-33" value="" style="endArrow=classic;html=1;" edge="1" parent="1">
          <mxGeometry width="50" height="50" relative="1" as="geometry">
            <mxPoint x="1034.4999999999998" y="1315" as="sourcePoint" />
            <mxPoint x="1035" y="1355" as="targetPoint" />
          </mxGeometry>
        </mxCell>
        <mxCell id="60DcxMuKNIoMC7qWtKat-34" value="" style="verticalLabelPosition=bottom;verticalAlign=top;html=1;shape=mxgraph.flowchart.on-page_reference;" vertex="1" parent="1">
          <mxGeometry x="1010" y="1355" width="50" height="50" as="geometry" />
        </mxCell>
        <mxCell id="60DcxMuKNIoMC7qWtKat-35" value="" style="endArrow=classic;html=1;" edge="1" parent="1">
          <mxGeometry width="50" height="50" relative="1" as="geometry">
            <mxPoint x="794.4999999999998" y="1315" as="sourcePoint" />
            <mxPoint x="795" y="1355" as="targetPoint" />
          </mxGeometry>
        </mxCell>
        <mxCell id="60DcxMuKNIoMC7qWtKat-36" value="" style="verticalLabelPosition=bottom;verticalAlign=top;html=1;shape=mxgraph.flowchart.on-page_reference;" vertex="1" parent="1">
          <mxGeometry x="770" y="1355" width="50" height="50" as="geometry" />
        </mxCell>
        <mxCell id="60DcxMuKNIoMC7qWtKat-37" value="168" style="text;html=1;strokeColor=none;fillColor=none;align=center;verticalAlign=middle;whiteSpace=wrap;rounded=0;shadow=0;glass=0;sketch=0;fontSize=7;" vertex="1" parent="1">
          <mxGeometry x="835" y="1370" width="40" height="20" as="geometry" />
        </mxCell>
        <mxCell id="60DcxMuKNIoMC7qWtKat-38" value="385" style="text;html=1;strokeColor=none;fillColor=none;align=center;verticalAlign=middle;whiteSpace=wrap;rounded=0;shadow=0;glass=0;sketch=0;fontSize=7;" vertex="1" parent="1">
          <mxGeometry x="425" y="1380" width="40" height="20" as="geometry" />
        </mxCell>
        <mxCell id="60DcxMuKNIoMC7qWtKat-39" value="&lt;p style=&quot;text-align: center&quot;&gt;&lt;span style=&quot;font-family: &amp;#34;lucida console&amp;#34;&quot;&gt;&lt;font style=&quot;font-size: 24px&quot;&gt;&lt;b&gt;索引计算&lt;/b&gt;&lt;/font&gt;&lt;/span&gt;&lt;font style=&quot;font-size: 14px&quot; face=&quot;Lucida Console&quot;&gt;&lt;br&gt;&lt;/font&gt;&lt;/p&gt;&lt;p&gt;&lt;font style=&quot;font-size: 14px&quot; face=&quot;Lucida Console&quot;&gt;索引计算方式：&lt;font style=&quot;font-size: 14px&quot;&gt;&lt;font color=&quot;#ff0000&quot;&gt;(n - 1) &amp;amp; hash&lt;/font&gt;&lt;br&gt;&lt;font color=&quot;#ff0000&quot;&gt;n&lt;/font&gt;为当前数组的长度，&lt;font color=&quot;#ff0000&quot;&gt;Integer&lt;/font&gt;的&lt;font color=&quot;#ff0000&quot;&gt;hash&lt;/font&gt;是本身&lt;/font&gt;&lt;/font&gt;&lt;br&gt;&lt;/p&gt;" style="text;html=1;align=left;verticalAlign=middle;whiteSpace=wrap;rounded=1;shadow=0;glass=0;sketch=0;fontSize=7;spacingLeft=5;arcSize=9;fillColor=#1ba1e2;strokeColor=#006EAF;fontColor=#ffffff;" vertex="1" parent="1">
          <mxGeometry x="940" y="990" width="300" height="97.5" as="geometry" />
        </mxCell>
        <mxCell id="60DcxMuKNIoMC7qWtKat-40" value="&lt;h2 style=&quot;text-align: center ; background-color: rgb(40 , 44 , 52) ; color: rgb(171 , 178 , 191) ; font-family: &amp;#34;source code variable&amp;#34; , monospace&quot;&gt;&lt;span style=&quot;font-size: 24px ; font-weight: normal&quot;&gt;Node&lt;/span&gt;&lt;br&gt;&lt;/h2&gt;&lt;pre style=&quot;background-color: #282c34 ; color: #abb2bf ; font-family: &amp;#34;source code variable&amp;#34; , monospace ; font-size: 13.5pt&quot;&gt;&lt;span style=&quot;color: #c679dd ; font-style: italic&quot;&gt;class &lt;/span&gt;&lt;span style=&quot;color: #e5c17c&quot;&gt;Node&lt;/span&gt;&lt;span style=&quot;color: #61afef&quot;&gt;&amp;lt;&lt;/span&gt;K&lt;span style=&quot;color: #a6b2c0&quot;&gt;,&lt;/span&gt;V&lt;span style=&quot;color: #61afef&quot;&gt;&amp;gt; &lt;/span&gt;&lt;span style=&quot;color: #a6b2c0&quot;&gt;{&lt;br&gt;&lt;/span&gt;&lt;span style=&quot;color: #a6b2c0&quot;&gt;    &lt;/span&gt;&lt;span style=&quot;color: #c679dd ; font-style: italic&quot;&gt;final int &lt;/span&gt;&lt;span style=&quot;color: #e06c75&quot;&gt;hash&lt;/span&gt;&lt;span style=&quot;color: #a6b2c0&quot;&gt;;&lt;br&gt;&lt;/span&gt;&lt;span style=&quot;color: #a6b2c0&quot;&gt;    &lt;/span&gt;&lt;span style=&quot;color: #c679dd ; font-style: italic&quot;&gt;final &lt;/span&gt;K &lt;span style=&quot;color: #e06c75&quot;&gt;key&lt;/span&gt;&lt;span style=&quot;color: #a6b2c0&quot;&gt;;&lt;br&gt;&lt;/span&gt;&lt;span style=&quot;color: #a6b2c0&quot;&gt;    &lt;/span&gt;V &lt;span style=&quot;color: #e06c75&quot;&gt;value&lt;/span&gt;&lt;span style=&quot;color: #a6b2c0&quot;&gt;;&lt;br&gt;&lt;/span&gt;&lt;span style=&quot;color: #a6b2c0&quot;&gt;    &lt;/span&gt;&lt;span style=&quot;color: #e5c17c&quot;&gt;Node&lt;/span&gt;&lt;span style=&quot;color: #61afef&quot;&gt;&amp;lt;&lt;/span&gt;K&lt;span style=&quot;color: #a6b2c0&quot;&gt;, &lt;/span&gt;V&lt;span style=&quot;color: #61afef&quot;&gt;&amp;gt; &lt;/span&gt;&lt;span style=&quot;color: #e06c75&quot;&gt;next&lt;/span&gt;&lt;span style=&quot;color: #a6b2c0&quot;&gt;;&lt;br&gt;&lt;/span&gt;&lt;span style=&quot;color: #a6b2c0&quot;&gt;}&lt;/span&gt;&lt;/pre&gt;" style="text;html=1;strokeColor=none;align=left;verticalAlign=middle;whiteSpace=wrap;rounded=1;shadow=0;glass=0;sketch=0;fontSize=7;fontColor=#3399FF;fillColor=#282C34;arcSize=6;spacingLeft=31;" vertex="1" parent="1">
          <mxGeometry x="940" y="740" width="290" height="235" as="geometry" />
        </mxCell>
        <mxCell id="60DcxMuKNIoMC7qWtKat-41" value="" style="shape=table;html=1;whiteSpace=wrap;startSize=0;container=1;collapsible=0;childLayout=tableLayout;" vertex="1" parent="1">
          <mxGeometry x="350" y="1275" width="960" height="40" as="geometry" />
        </mxCell>
        <mxCell id="60DcxMuKNIoMC7qWtKat-42" value="" style="shape=partialRectangle;html=1;whiteSpace=wrap;collapsible=0;dropTarget=0;pointerEvents=0;fillColor=none;top=0;left=0;bottom=0;right=0;points=[[0,0.5],[1,0.5]];portConstraint=eastwest;" vertex="1" parent="60DcxMuKNIoMC7qWtKat-41">
          <mxGeometry width="960" height="40" as="geometry" />
        </mxCell>
        <mxCell id="60DcxMuKNIoMC7qWtKat-43" value="" style="shape=partialRectangle;html=1;whiteSpace=wrap;connectable=0;overflow=hidden;fillColor=none;top=0;left=0;bottom=0;right=0;" vertex="1" parent="60DcxMuKNIoMC7qWtKat-42">
          <mxGeometry width="60" height="40" as="geometry" />
        </mxCell>
        <mxCell id="60DcxMuKNIoMC7qWtKat-44" value="&lt;span&gt;497&lt;/span&gt;" style="shape=partialRectangle;html=1;whiteSpace=wrap;connectable=0;overflow=hidden;fillColor=none;top=0;left=0;bottom=0;right=0;" vertex="1" parent="60DcxMuKNIoMC7qWtKat-42">
          <mxGeometry x="60" width="60" height="40" as="geometry" />
        </mxCell>
        <mxCell id="60DcxMuKNIoMC7qWtKat-45" value="" style="shape=partialRectangle;html=1;whiteSpace=wrap;connectable=0;overflow=hidden;fillColor=none;top=0;left=0;bottom=0;right=0;" vertex="1" parent="60DcxMuKNIoMC7qWtKat-42">
          <mxGeometry x="120" width="60" height="40" as="geometry" />
        </mxCell>
        <mxCell id="60DcxMuKNIoMC7qWtKat-46" value="" style="shape=partialRectangle;html=1;whiteSpace=wrap;connectable=0;overflow=hidden;fillColor=none;top=0;left=0;bottom=0;right=0;" vertex="1" parent="60DcxMuKNIoMC7qWtKat-42">
          <mxGeometry x="180" width="60" height="40" as="geometry" />
        </mxCell>
        <mxCell id="60DcxMuKNIoMC7qWtKat-47" value="" style="shape=partialRectangle;html=1;whiteSpace=wrap;connectable=0;overflow=hidden;fillColor=none;top=0;left=0;bottom=0;right=0;" vertex="1" parent="60DcxMuKNIoMC7qWtKat-42">
          <mxGeometry x="240" width="60" height="40" as="geometry" />
        </mxCell>
        <mxCell id="60DcxMuKNIoMC7qWtKat-48" value="789" style="shape=partialRectangle;html=1;whiteSpace=wrap;connectable=0;overflow=hidden;fillColor=none;top=0;left=0;bottom=0;right=0;" vertex="1" parent="60DcxMuKNIoMC7qWtKat-42">
          <mxGeometry x="300" width="60" height="40" as="geometry" />
        </mxCell>
        <mxCell id="60DcxMuKNIoMC7qWtKat-49" value="" style="shape=partialRectangle;html=1;whiteSpace=wrap;connectable=0;overflow=hidden;fillColor=none;top=0;left=0;bottom=0;right=0;" vertex="1" parent="60DcxMuKNIoMC7qWtKat-42">
          <mxGeometry x="360" width="60" height="40" as="geometry" />
        </mxCell>
        <mxCell id="60DcxMuKNIoMC7qWtKat-50" value="&lt;span&gt;279&lt;/span&gt;" style="shape=partialRectangle;html=1;whiteSpace=wrap;connectable=0;overflow=hidden;fillColor=none;top=0;left=0;bottom=0;right=0;" vertex="1" parent="60DcxMuKNIoMC7qWtKat-42">
          <mxGeometry x="420" width="60" height="40" as="geometry" />
        </mxCell>
        <mxCell id="60DcxMuKNIoMC7qWtKat-51" value="456" style="shape=partialRectangle;html=1;whiteSpace=wrap;connectable=0;overflow=hidden;fillColor=none;top=0;left=0;bottom=0;right=0;" vertex="1" parent="60DcxMuKNIoMC7qWtKat-42">
          <mxGeometry x="480" width="60" height="40" as="geometry" />
        </mxCell>
        <mxCell id="60DcxMuKNIoMC7qWtKat-52" value="" style="shape=partialRectangle;html=1;whiteSpace=wrap;connectable=0;overflow=hidden;fillColor=none;top=0;left=0;bottom=0;right=0;" vertex="1" parent="60DcxMuKNIoMC7qWtKat-42">
          <mxGeometry x="540" width="60" height="40" as="geometry" />
        </mxCell>
        <mxCell id="60DcxMuKNIoMC7qWtKat-53" value="" style="shape=partialRectangle;html=1;whiteSpace=wrap;connectable=0;overflow=hidden;fillColor=none;top=0;left=0;bottom=0;right=0;" vertex="1" parent="60DcxMuKNIoMC7qWtKat-42">
          <mxGeometry x="600" width="60" height="40" as="geometry" />
        </mxCell>
        <mxCell id="60DcxMuKNIoMC7qWtKat-54" value="443" style="shape=partialRectangle;html=1;whiteSpace=wrap;connectable=0;overflow=hidden;top=0;left=0;bottom=0;right=0;strokeWidth=1;fillColor=none;" vertex="1" parent="60DcxMuKNIoMC7qWtKat-42">
          <mxGeometry x="660" width="60" height="40" as="geometry" />
        </mxCell>
        <mxCell id="60DcxMuKNIoMC7qWtKat-55" value="" style="shape=partialRectangle;html=1;whiteSpace=wrap;connectable=0;overflow=hidden;fillColor=none;top=0;left=0;bottom=0;right=0;" vertex="1" parent="60DcxMuKNIoMC7qWtKat-42">
          <mxGeometry x="720" width="60" height="40" as="geometry" />
        </mxCell>
        <mxCell id="60DcxMuKNIoMC7qWtKat-56" value="" style="shape=partialRectangle;html=1;whiteSpace=wrap;connectable=0;overflow=hidden;fillColor=none;top=0;left=0;bottom=0;right=0;" vertex="1" parent="60DcxMuKNIoMC7qWtKat-42">
          <mxGeometry x="780" width="60" height="40" as="geometry" />
        </mxCell>
        <mxCell id="60DcxMuKNIoMC7qWtKat-57" value="&lt;span&gt;222&lt;/span&gt;" style="shape=partialRectangle;html=1;whiteSpace=wrap;connectable=0;overflow=hidden;fillColor=none;top=0;left=0;bottom=0;right=0;" vertex="1" parent="60DcxMuKNIoMC7qWtKat-42">
          <mxGeometry x="840" width="60" height="40" as="geometry" />
        </mxCell>
        <mxCell id="60DcxMuKNIoMC7qWtKat-58" value="" style="shape=partialRectangle;html=1;whiteSpace=wrap;connectable=0;overflow=hidden;fillColor=none;top=0;left=0;bottom=0;right=0;" vertex="1" parent="60DcxMuKNIoMC7qWtKat-42">
          <mxGeometry x="900" width="60" height="40" as="geometry" />
        </mxCell>
        <mxCell id="60DcxMuKNIoMC7qWtKat-59" value="" style="shape=table;html=1;whiteSpace=wrap;startSize=0;container=1;collapsible=0;childLayout=tableLayout;fontSize=7;" vertex="1" parent="1">
          <mxGeometry x="350" y="1258" width="960" height="17" as="geometry" />
        </mxCell>
        <mxCell id="60DcxMuKNIoMC7qWtKat-60" value="" style="shape=partialRectangle;html=1;whiteSpace=wrap;collapsible=0;dropTarget=0;pointerEvents=0;fillColor=none;top=0;left=0;bottom=0;right=0;points=[[0,0.5],[1,0.5]];portConstraint=eastwest;" vertex="1" parent="60DcxMuKNIoMC7qWtKat-59">
          <mxGeometry width="960" height="17" as="geometry" />
        </mxCell>
        <mxCell id="60DcxMuKNIoMC7qWtKat-61" value="&lt;font style=&quot;font-size: 11px&quot;&gt;0&lt;/font&gt;" style="shape=partialRectangle;html=1;whiteSpace=wrap;connectable=0;overflow=hidden;fillColor=none;top=0;left=0;bottom=0;right=0;" vertex="1" parent="60DcxMuKNIoMC7qWtKat-60">
          <mxGeometry width="60" height="17" as="geometry" />
        </mxCell>
        <mxCell id="60DcxMuKNIoMC7qWtKat-62" value="1" style="shape=partialRectangle;html=1;whiteSpace=wrap;connectable=0;overflow=hidden;fillColor=none;top=0;left=0;bottom=0;right=0;" vertex="1" parent="60DcxMuKNIoMC7qWtKat-60">
          <mxGeometry x="60" width="60" height="17" as="geometry" />
        </mxCell>
        <mxCell id="60DcxMuKNIoMC7qWtKat-63" value="2" style="shape=partialRectangle;html=1;whiteSpace=wrap;connectable=0;overflow=hidden;fillColor=none;top=0;left=0;bottom=0;right=0;" vertex="1" parent="60DcxMuKNIoMC7qWtKat-60">
          <mxGeometry x="120" width="60" height="17" as="geometry" />
        </mxCell>
        <mxCell id="60DcxMuKNIoMC7qWtKat-64" value="3" style="shape=partialRectangle;html=1;whiteSpace=wrap;connectable=0;overflow=hidden;fillColor=none;top=0;left=0;bottom=0;right=0;" vertex="1" parent="60DcxMuKNIoMC7qWtKat-60">
          <mxGeometry x="180" width="60" height="17" as="geometry" />
        </mxCell>
        <mxCell id="60DcxMuKNIoMC7qWtKat-65" value="4" style="shape=partialRectangle;html=1;whiteSpace=wrap;connectable=0;overflow=hidden;fillColor=none;top=0;left=0;bottom=0;right=0;" vertex="1" parent="60DcxMuKNIoMC7qWtKat-60">
          <mxGeometry x="240" width="60" height="17" as="geometry" />
        </mxCell>
        <mxCell id="60DcxMuKNIoMC7qWtKat-66" value="5" style="shape=partialRectangle;html=1;whiteSpace=wrap;connectable=0;overflow=hidden;fillColor=none;top=0;left=0;bottom=0;right=0;" vertex="1" parent="60DcxMuKNIoMC7qWtKat-60">
          <mxGeometry x="300" width="60" height="17" as="geometry" />
        </mxCell>
        <mxCell id="60DcxMuKNIoMC7qWtKat-67" value="6" style="shape=partialRectangle;html=1;whiteSpace=wrap;connectable=0;overflow=hidden;fillColor=none;top=0;left=0;bottom=0;right=0;" vertex="1" parent="60DcxMuKNIoMC7qWtKat-60">
          <mxGeometry x="360" width="60" height="17" as="geometry" />
        </mxCell>
        <mxCell id="60DcxMuKNIoMC7qWtKat-68" value="7" style="shape=partialRectangle;html=1;whiteSpace=wrap;connectable=0;overflow=hidden;fillColor=none;top=0;left=0;bottom=0;right=0;" vertex="1" parent="60DcxMuKNIoMC7qWtKat-60">
          <mxGeometry x="420" width="60" height="17" as="geometry" />
        </mxCell>
        <mxCell id="60DcxMuKNIoMC7qWtKat-69" value="8" style="shape=partialRectangle;html=1;whiteSpace=wrap;connectable=0;overflow=hidden;fillColor=none;top=0;left=0;bottom=0;right=0;" vertex="1" parent="60DcxMuKNIoMC7qWtKat-60">
          <mxGeometry x="480" width="60" height="17" as="geometry" />
        </mxCell>
        <mxCell id="60DcxMuKNIoMC7qWtKat-70" value="9" style="shape=partialRectangle;html=1;whiteSpace=wrap;connectable=0;overflow=hidden;fillColor=none;top=0;left=0;bottom=0;right=0;" vertex="1" parent="60DcxMuKNIoMC7qWtKat-60">
          <mxGeometry x="540" width="60" height="17" as="geometry" />
        </mxCell>
        <mxCell id="60DcxMuKNIoMC7qWtKat-71" value="10" style="shape=partialRectangle;html=1;whiteSpace=wrap;connectable=0;overflow=hidden;fillColor=none;top=0;left=0;bottom=0;right=0;" vertex="1" parent="60DcxMuKNIoMC7qWtKat-60">
          <mxGeometry x="600" width="60" height="17" as="geometry" />
        </mxCell>
        <mxCell id="60DcxMuKNIoMC7qWtKat-72" value="11" style="shape=partialRectangle;html=1;whiteSpace=wrap;connectable=0;overflow=hidden;fillColor=none;top=0;left=0;bottom=0;right=0;" vertex="1" parent="60DcxMuKNIoMC7qWtKat-60">
          <mxGeometry x="660" width="60" height="17" as="geometry" />
        </mxCell>
        <mxCell id="60DcxMuKNIoMC7qWtKat-73" value="12" style="shape=partialRectangle;html=1;whiteSpace=wrap;connectable=0;overflow=hidden;fillColor=none;top=0;left=0;bottom=0;right=0;" vertex="1" parent="60DcxMuKNIoMC7qWtKat-60">
          <mxGeometry x="720" width="60" height="17" as="geometry" />
        </mxCell>
        <mxCell id="60DcxMuKNIoMC7qWtKat-74" value="13" style="shape=partialRectangle;html=1;whiteSpace=wrap;connectable=0;overflow=hidden;fillColor=none;top=0;left=0;bottom=0;right=0;" vertex="1" parent="60DcxMuKNIoMC7qWtKat-60">
          <mxGeometry x="780" width="60" height="17" as="geometry" />
        </mxCell>
        <mxCell id="60DcxMuKNIoMC7qWtKat-75" value="14" style="shape=partialRectangle;html=1;whiteSpace=wrap;connectable=0;overflow=hidden;fillColor=none;top=0;left=0;bottom=0;right=0;" vertex="1" parent="60DcxMuKNIoMC7qWtKat-60">
          <mxGeometry x="840" width="60" height="17" as="geometry" />
        </mxCell>
        <mxCell id="60DcxMuKNIoMC7qWtKat-76" value="15" style="shape=partialRectangle;html=1;whiteSpace=wrap;connectable=0;overflow=hidden;fillColor=none;top=0;left=0;bottom=0;right=0;" vertex="1" parent="60DcxMuKNIoMC7qWtKat-60">
          <mxGeometry x="900" width="60" height="17" as="geometry" />
        </mxCell>
        <mxCell id="60DcxMuKNIoMC7qWtKat-77" value="&lt;span style=&quot;font-size: 17px&quot;&gt;先定义一个Node类，里面有：&lt;font color=&quot;#ffff00&quot; style=&quot;font-size: 17px&quot;&gt;int hash, K key, V value, Node next&lt;/font&gt;&lt;br&gt;&lt;font color=&quot;#ffffff&quot; style=&quot;font-size: 17px&quot;&gt;add方法：&lt;/font&gt;&lt;font color=&quot;#ffff00&quot; style=&quot;font-size: 17px&quot;&gt;根据hash值计算出数组的索引，然后判断此位置上有没有元素，如果有就循环判断元素的next是不是等于null，如果是就把要添加的元素添加到这个next上。&lt;br&gt;&lt;/font&gt;&lt;br&gt;resize方法：&lt;font color=&quot;#ffff00&quot; style=&quot;font-size: 17px&quot;&gt;如果数组用了长度的75%就开始扩容，扩容为当前的2倍，然后把旧数组的内容复制到新数组中。&lt;br&gt;&lt;/font&gt;&lt;br&gt;remove方法：&lt;font color=&quot;#ffff00&quot; style=&quot;font-size: 17px&quot;&gt;找到要删除的元素，然后把要删除的元素的位置上的元素替换为要删除元素的next。&lt;/font&gt;&lt;br&gt;&lt;/span&gt;" style="text;html=1;strokeColor=#006EAF;fillColor=#1ba1e2;align=left;verticalAlign=top;whiteSpace=wrap;rounded=1;labelPosition=center;verticalLabelPosition=middle;fontColor=#ffffff;spacingLeft=11;arcSize=5;" vertex="1" parent="1">
          <mxGeometry x="1250" y="750" width="560" height="230" as="geometry" />
        </mxCell>
      </root>
    </mxGraphModel>
  </diagram>
</mxfile>
